# xmcd CD database file
#
# Track frame offsets:
#	150
#	8281
#	18005
#	32084
#	41866
#	61569
#	72980
#	83608
#	93887
#	103763
#	114082
#	126400
#
# Disc length: 1803 seconds
#
# Revision: 0
# Processed by: cddbd v1.5.2PL0 Copyright (c) Steve Scherf et al.
# Submitted via: CDex 1.51
#
DISCID=8207090c
DTITLE=Johnny Cash - My Amercia - Best Of Vol. 2 - CD1
DYEAR=2009
DGENRE=Country
TTITLE0=Five Feet High And Rising
TTITLE1=Southern Comfort
TTITLE2=Ragged Old Flag
TTITLE3=All I Do Is Drive
TTITLE4=Going To Memphis
TTITLE5=Cotton Fields (The Cotton Song)
TTITLE6=Run Softly, Blue River
TTITLE7=Busted
TTITLE8=Roughneck
TTITLE9=Big River
TTITLE10=King Of The Hill
TTITLE11=I Want To Go Home
EXTD=YEAR: 2009
EXTT0=
EXTT1=
EXTT2=
EXTT3=
EXTT4=
EXTT5=
EXTT6=
EXTT7=
EXTT8=
EXTT9=
EXTT10=
EXTT11=
PLAYORDER=
